<?xml version="1.0" standalone="no"?>
<!DOCTYPE svg PUBLIC "-//W3C//DTD SVG 20010904//EN"
 "http://www.w3.org/TR/2001/REC-SVG-20010904/DTD/svg10.dtd">
<svg version="1.0" xmlns="http://www.w3.org/2000/svg"
 width="900.000000pt" height="900.000000pt" viewBox="0 0 900.000000 900.000000"
 preserveAspectRatio="xMidYMid meet">
<metadata>
Created by potrace 1.10, written by Peter Selinger 2001-2011
</metadata>
<g transform="translate(0.000000,900.000000) scale(0.100000,-0.100000)"
fill="#66ff00" stroke="none">
<path d="M4508 6794 c-4 -3 -48 -8 -100 -10 -160 -8 -254 -19 -270 -31 -8 -8
-44 -12 -90 -11 -55 0 -82 -4 -99 -16 -13 -9 -33 -16 -45 -16 -12 0 -41 -9
-65 -20 -24 -11 -57 -20 -74 -20 -61 -1 -310 -111 -372 -164 -23 -20 -47 -36
-53 -36 -7 0 -26 -11 -42 -26 -17 -14 -43 -28 -59 -31 -15 -3 -57 -33 -94 -69
-37 -36 -82 -71 -100 -78 -18 -8 -45 -31 -61 -52 -33 -44 -63 -71 -106 -96
-17 -9 -36 -25 -43 -35 -12 -17 -9 -24 20 -59 27 -31 36 -37 46 -26 20 19 37
14 32 -10 -3 -17 3 -26 23 -36 19 -8 31 -9 38 -2 12 12 46 13 46 2 0 -5 -11
-19 -25 -32 -36 -34 -31 -54 25 -101 48 -41 73 -74 113 -151 10 -21 27 -38 36
-38 15 0 71 -51 71 -65 0 -3 17 -29 39 -58 21 -29 42 -62 45 -73 4 -12 26 -40
49 -62 23 -23 50 -51 60 -62 9 -11 24 -20 32 -20 9 0 47 29 85 65 38 36 78 65
89 65 12 0 21 9 25 24 3 14 17 28 33 34 16 5 51 27 79 49 55 44 95 67 134 76
14 4 44 22 67 42 51 44 161 95 205 96 18 0 58 8 88 18 41 14 63 16 88 9 18 -5
46 -7 61 -3 18 4 48 -2 81 -14 29 -11 78 -25 108 -32 50 -10 62 -18 150 -107
l94 -96 -4 -73 c-3 -41 -1 -76 3 -79 5 -3 9 -27 9 -55 0 -36 -5 -54 -19 -65
-10 -9 -16 -24 -14 -35 7 -26 -27 -109 -59 -144 -15 -16 -28 -40 -28 -52 0
-12 -13 -37 -30 -55 -16 -18 -30 -36 -30 -41 0 -6 -87 -126 -163 -224 -7 -9
-4 -13 9 -13 18 0 111 111 126 151 4 11 11 19 17 19 5 0 11 8 15 18 3 9 15 31
26 47 11 17 23 38 26 48 4 9 10 17 15 17 11 0 49 74 49 94 0 8 4 16 8 18 4 2
31 31 60 66 45 55 52 69 52 106 0 47 24 82 34 49 12 -43 -3 -144 -28 -189 -14
-26 -26 -56 -26 -67 l0 -21 19 21 c21 22 61 104 61 125 0 7 7 22 15 32 8 11
15 31 15 45 1 14 7 37 15 51 9 15 14 54 15 100 0 101 -35 209 -85 261 -56 57
-106 103 -124 113 -11 6 -44 27 -73 47 -29 20 -64 40 -78 44 -14 4 -36 15 -50
25 -14 10 -47 20 -73 24 -27 4 -57 16 -66 25 -18 18 -58 30 -116 34 -16 1 -31
7 -33 12 -1 6 43 11 115 13 94 2 120 0 128 -12 6 -8 29 -16 51 -18 29 -2 38
-7 36 -19 -2 -14 5 -16 43 -11 30 3 45 1 45 -7 0 -6 11 -16 25 -21 14 -5 25
-14 25 -20 0 -5 10 -10 23 -10 13 0 36 -13 52 -30 16 -16 34 -30 40 -30 20 0
115 -104 115 -127 0 -7 5 -13 10 -13 6 0 10 -9 10 -20 0 -10 8 -23 17 -29 10
-5 18 -21 18 -34 1 -14 6 -32 12 -39 6 -7 13 -47 15 -88 8 -125 -13 -159 -32
-52 -7 36 -8 19 -6 -70 2 -90 -1 -118 -11 -122 -7 -3 -13 -19 -13 -36 0 -24
-4 -30 -21 -30 -19 0 -21 -4 -15 -31 5 -24 -1 -41 -28 -82 -18 -29 -39 -68
-45 -88 -7 -20 -26 -52 -44 -70 -18 -19 -40 -50 -50 -71 -9 -20 -40 -58 -67
-84 -28 -26 -50 -54 -50 -61 0 -16 -93 -105 -120 -115 -14 -5 -17 -2 -12 14 4
18 3 19 -17 7 -24 -16 -28 -39 -6 -39 21 0 19 -6 -12 -51 -16 -21 -36 -39 -45
-39 -18 0 -58 -45 -58 -65 0 -7 -38 -45 -85 -85 -46 -40 -86 -77 -87 -81 -6
-18 -152 -159 -165 -159 -17 0 -17 -27 0 -33 7 -3 -17 -33 -60 -73 -96 -92
-133 -120 -155 -116 -26 5 -48 -16 -48 -44 0 -27 -3 -28 -30 -14 -13 7 -21 7
-25 0 -3 -6 1 -13 9 -16 23 -9 19 -26 -10 -47 -20 -15 -28 -16 -39 -7 -12 10
-15 9 -15 -9 0 -11 -4 -21 -10 -21 -5 0 -10 -7 -10 -15 0 -8 -4 -15 -10 -15
-5 0 -10 -6 -10 -13 0 -7 -14 -28 -31 -45 -26 -27 -29 -35 -19 -47 11 -13 8
-14 -18 -9 -17 4 -32 1 -36 -5 -4 -7 1 -11 13 -11 21 0 29 -15 12 -22 -5 -1
-47 -39 -93 -83 -46 -44 -115 -105 -153 -135 -38 -30 -86 -70 -107 -89 l-38
-34 -103 7 c-94 6 -106 5 -147 -16 -31 -16 -52 -36 -68 -64 -13 -26 -32 -44
-47 -48 -30 -8 -38 -31 -42 -136 -5 -117 -5 -123 -3 -225 3 -97 10 -115 45
-115 36 0 37 -12 4 -39 -42 -36 -78 -141 -48 -141 7 0 9 -12 5 -35 -5 -27 -3
-38 12 -51 19 -16 19 -17 -4 -40 -28 -27 -30 -46 -8 -65 24 -19 216 -22 271
-4 57 20 98 19 129 -2 24 -15 33 -15 98 -3 81 15 157 14 202 -2 25 -9 40 -8
73 5 38 15 45 16 71 2 22 -11 49 -14 117 -9 92 6 115 6 388 5 94 0 211 1 260
3 52 2 95 0 102 -6 15 -12 63 -2 63 12 0 6 7 10 15 10 8 0 15 -4 15 -10 0 -15
46 -12 60 5 11 13 16 13 42 -1 26 -13 35 -13 78 -1 43 13 49 13 62 -2 13 -15
39 -17 229 -15 118 1 238 6 266 11 39 7 61 6 85 -4 26 -11 37 -11 55 -2 18 10
28 10 47 0 18 -10 28 -10 46 -1 17 9 28 9 51 0 24 -10 33 -10 54 4 22 14 29
15 67 1 55 -19 102 -19 118 0 16 19 40 19 76 0 38 -20 61 -19 73 3 8 14 13 15
30 4 41 -24 54 -16 48 29 -3 23 -10 46 -15 51 -13 13 -103 17 -485 22 -175 2
-320 6 -324 9 -11 12 51 29 132 38 44 4 154 9 245 10 91 0 199 5 240 11 41 5
99 11 128 14 47 5 52 8 52 30 0 28 -47 61 -95 68 -16 2 -64 9 -105 15 -41 6
-124 11 -185 11 -60 1 -146 4 -190 8 l-80 7 130 6 c72 4 221 7 333 8 l202 1
12 25 c8 18 8 28 -1 38 -6 9 -8 27 -5 47 5 22 3 35 -7 41 -8 5 -76 9 -151 9
-80 0 -139 4 -143 10 -4 6 8 10 29 10 42 0 68 9 60 21 -7 12 -121 12 -129 0
-3 -5 -1 -12 5 -16 16 -10 1 -25 -25 -25 -36 0 -42 20 -12 42 17 12 27 29 27
44 0 21 -5 24 -34 24 -46 0 -66 -9 -66 -29 0 -15 -11 -17 -82 -16 -65 2 -96 8
-146 29 -62 26 -82 27 -82 2 0 -8 -19 -15 -52 -19 -44 -6 -56 -3 -74 14 -22
21 -49 18 -58 -7 -6 -16 -42 -19 -51 -4 -4 6 -69 10 -164 10 -107 0 -161 4
-169 12 -9 9 -17 9 -34 1 -44 -22 -69 -22 -86 -2 -9 10 -21 19 -28 19 -6 0
-19 9 -29 20 -21 23 -62 26 -89 5 -15 -11 -23 -12 -40 -2 -11 6 -48 14 -81 17
-57 5 -60 6 -63 34 -6 50 30 60 76 21 l30 -25 58 21 c34 13 86 22 123 23 42 1
66 5 68 14 4 9 -14 12 -64 13 -37 0 -90 4 -118 9 l-50 7 75 3 c41 2 86 3 100
2 14 -1 42 3 64 9 29 8 36 13 27 22 -8 8 -97 12 -287 13 -180 1 -280 6 -286
12 -16 16 6 38 42 46 17 3 30 12 30 21 0 12 -10 14 -59 9 -107 -12 -102 -6
219 264 30 26 98 89 151 142 53 52 149 145 213 205 64 61 145 143 179 183 34
39 67 72 74 72 7 0 22 14 32 31 10 17 54 68 97 114 44 46 93 102 109 125 41
56 116 146 163 195 22 22 47 56 57 74 9 19 36 62 59 95 24 34 48 76 54 94 6
18 20 45 30 60 10 15 24 41 31 57 7 17 30 60 52 96 22 36 41 81 44 100 2 19
13 61 25 94 12 33 24 87 26 120 3 33 9 78 14 100 32 150 34 181 12 252 -12 37
-24 91 -26 118 -7 81 -17 115 -38 126 -15 8 -18 17 -13 39 5 21 -1 39 -19 69
-14 22 -26 48 -26 56 0 28 -50 111 -100 165 -38 41 -140 169 -140 176 0 4 -8
13 -17 20 -10 7 -15 16 -10 20 8 9 153 -132 196 -191 16 -22 46 -71 66 -110
21 -38 41 -72 44 -75 13 -9 51 -90 51 -108 0 -9 7 -26 15 -36 8 -11 15 -32 15
-47 0 -15 7 -40 15 -55 8 -16 15 -52 15 -81 0 -28 4 -63 10 -77 21 -57 10
-289 -21 -411 -6 -22 -14 -60 -20 -85 -5 -24 -14 -49 -19 -54 -6 -6 -10 -19
-10 -30 0 -23 -55 -165 -87 -221 -12 -22 -33 -62 -48 -90 -14 -27 -31 -59 -38
-70 -75 -121 -113 -177 -188 -275 -48 -63 -102 -131 -121 -152 -18 -20 -58
-67 -88 -104 -30 -37 -90 -103 -132 -147 -43 -44 -78 -84 -78 -89 0 -16 28 -8
54 17 33 30 36 31 36 4 0 -12 4 -17 11 -13 6 3 8 17 5 30 -8 29 31 75 44 53 6
-9 19 -3 49 24 23 20 45 37 50 37 12 0 21 39 10 46 -17 10 -9 25 11 19 14 -5
20 -2 20 9 0 9 4 16 10 16 19 0 60 56 60 82 0 30 67 128 88 128 6 0 12 -4 12
-10 0 -15 -23 -60 -30 -60 -4 0 -12 -11 -18 -25 -10 -21 -9 -25 6 -25 27 0 92
58 92 83 1 14 17 34 45 55 31 23 45 40 45 56 0 14 10 30 24 40 13 8 34 35 46
59 12 25 48 75 81 112 32 37 64 86 72 109 8 22 26 59 41 80 14 21 26 45 26 53
0 8 16 43 35 77 28 50 35 74 35 115 0 29 6 65 14 79 35 64 52 175 58 362 3 75
-12 243 -24 280 -6 19 -10 52 -9 73 2 23 -5 53 -17 75 -10 20 -27 64 -37 97
-24 85 -41 115 -91 159 -24 21 -44 44 -44 51 0 7 -7 19 -17 26 -9 8 -25 33
-35 56 -10 24 -31 51 -45 60 -14 10 -48 39 -76 66 -27 26 -55 47 -63 47 -7 0
-20 10 -28 21 -22 33 -152 109 -185 109 -10 0 -26 9 -36 20 -26 28 -91 60
-125 60 -16 0 -45 11 -64 24 -22 15 -57 26 -98 30 -34 4 -68 12 -75 18 -8 6
-31 8 -56 4 -26 -4 -65 -1 -98 7 -30 8 -68 12 -85 10 -17 -3 -55 2 -84 11 -52
16 -151 22 -162 10z m660 -226 c20 -12 30 -24 23 -26 -7 -2 -18 1 -24 7 -6 6
-19 11 -29 11 -10 0 -18 7 -18 15 0 20 6 19 48 -7z m560 -366 c12 -13 22 -28
22 -34 0 -5 12 -27 28 -47 33 -44 62 -95 62 -110 0 -6 16 -44 35 -85 19 -41
35 -84 35 -94 0 -11 7 -33 15 -48 17 -33 20 -110 4 -119 -17 -11 -22 1 -27 63
-3 31 -9 60 -14 63 -5 3 -13 21 -18 40 -16 67 -65 185 -80 194 -4 2 -10 17
-13 32 -3 16 -14 37 -24 48 -34 37 -83 122 -83 142 0 7 29 -16 58 -45z m-683
-32 c40 -41 13 -38 -54 6 -5 4 9 24 18 24 4 0 20 -13 36 -30z m207 -167 c18
-16 25 -43 11 -43 -10 0 -53 42 -53 52 0 13 22 9 42 -9z m-237 -527 c16 -25
12 -49 -13 -79 -20 -23 -32 -6 -32 49 0 59 18 72 45 30z m965 -8 c0 -16 -3
-19 -11 -11 -6 6 -8 16 -5 22 11 17 16 13 16 -11z m-363 -150 c-2 -13 -4 -3
-4 22 0 25 2 35 4 23 2 -13 2 -33 0 -45z m343 -13 c0 -50 -8 -77 -21 -69 -10
6 -12 68 -3 101 10 36 24 16 24 -32z m-548 -135 c-7 -19 -10 -21 -15 -7 -8 22
3 51 15 39 5 -5 5 -19 0 -32z m518 -12 c0 -38 -14 -66 -24 -49 -9 14 4 81 15
81 5 0 9 -15 9 -32z m-374 -85 c-11 -11 -17 4 -9 23 7 18 8 18 11 1 2 -10 1
-21 -2 -24z m-23 -73 c-3 -11 -9 -20 -14 -20 -10 0 -12 33 -3 43 12 12 22 -3
17 -23z m330 -40 c-7 -28 -13 -25 -13 6 0 14 4 23 9 20 5 -3 7 -15 4 -26z
m-646 -176 c-31 -31 -33 -29 -11 15 11 23 19 30 27 22 7 -7 2 -18 -16 -37z
m203 -8 c0 -16 -18 -31 -27 -22 -8 8 5 36 17 36 5 0 10 -6 10 -14z m-240 -56
c0 -10 -36 -50 -45 -50 -11 0 -4 21 12 40 19 22 33 26 33 10z m192 -18 c-7 -2
-12 -13 -12 -25 0 -12 -11 -32 -24 -44 -50 -47 -49 -18 1 50 23 31 39 45 41
37 3 -8 0 -16 -6 -18z m-314 -134 c-6 -18 -28 -21 -28 -4 0 9 7 16 16 16 9 0
14 -5 12 -12z m215 -15 c-8 -21 -45 -63 -55 -63 -15 0 -8 22 15 50 25 32 50
40 40 13z m-324 -119 c-35 -37 -44 -29 -12 12 15 20 29 31 31 24 2 -6 -6 -22
-19 -36z m209 -28 c-7 -8 -24 -29 -38 -47 -14 -18 -34 -42 -45 -53 -11 -11
-27 -30 -35 -42 -19 -28 -178 -202 -209 -228 -13 -12 -53 -52 -90 -90 -36 -38
-77 -79 -90 -90 -13 -12 -47 -43 -75 -71 -46 -44 -169 -157 -260 -238 -17 -15
-42 -38 -56 -50 -14 -13 -61 -54 -105 -92 -44 -38 -82 -71 -85 -74 -3 -3 -23
-21 -45 -40 -22 -18 -70 -62 -107 -97 -57 -54 -73 -64 -103 -64 -25 0 -38 5
-42 18 -4 9 -11 20 -17 24 -6 4 -7 10 -3 15 5 4 12 1 18 -7 8 -12 16 -8 44 23
20 20 42 37 50 37 8 0 15 5 15 10 0 6 6 10 13 10 6 0 23 12 37 27 14 14 54 50
90 79 36 28 79 65 96 81 17 15 52 45 77 67 26 21 59 50 75 65 15 14 55 48 87
76 33 27 102 91 153 142 51 51 110 105 130 120 20 15 54 42 75 60 20 18 44 33
52 33 8 0 15 4 15 10 0 9 91 118 125 150 53 50 76 73 133 133 34 37 67 67 72
67 6 0 10 4 10 9 0 15 45 61 48 51 2 -6 -2 -16 -10 -24z m-410 -186 c-13 -20
-38 -35 -38 -23 0 10 32 43 42 43 4 0 3 -9 -4 -20z m-58 -59 c-11 -22 -61 -64
-67 -57 -5 5 59 74 70 75 4 1 3 -8 -3 -18z m580 -106 c0 -8 -7 -15 -15 -15
-16 0 -20 12 -8 23 11 12 23 8 23 -8z m-840 -155 c0 -5 -7 -10 -15 -10 -8 0
-15 -7 -15 -15 0 -8 -7 -15 -15 -15 -8 0 -15 -7 -15 -15 0 -8 -7 -15 -15 -15
-17 0 -20 -16 -5 -25 6 -3 13 1 16 9 3 9 10 16 16 16 5 0 20 12 33 26 13 14
29 24 35 22 10 -3 -111 -138 -124 -138 -3 0 -23 -17 -44 -38 -20 -21 -68 -63
-107 -94 -38 -31 -84 -69 -101 -85 -54 -49 -152 -134 -181 -156 -15 -12 -32
-26 -38 -33 -5 -6 -30 -26 -55 -44 -42 -32 -80 -64 -119 -101 -39 -35 -67 -49
-103 -49 -20 0 -39 3 -42 8 -5 8 61 67 98 86 13 6 47 35 76 64 29 28 56 49 61
46 5 -3 9 1 9 8 1 7 26 32 58 56 31 23 74 58 94 77 20 19 39 35 43 35 3 0 22
16 42 35 37 35 53 43 53 25 0 -5 8 -10 18 -10 16 1 15 2 -2 15 -18 14 -18 15
5 39 22 23 39 26 39 5 0 -5 -7 -9 -15 -9 -17 0 -20 -16 -5 -25 6 -3 13 1 16 9
3 9 12 16 20 16 8 0 14 7 14 15 0 8 -4 15 -10 15 -5 0 -10 5 -10 10 0 6 7 10
15 10 8 0 15 -5 15 -11 0 -5 5 -7 12 -3 9 6 9 9 0 12 -20 6 -14 29 13 46 32
21 38 20 30 -4 -9 -27 1 -25 29 5 13 14 28 25 35 25 15 0 14 27 -1 33 -8 3 13
31 52 70 61 62 90 80 90 57z m-200 -20 c-10 -19 -30 -28 -30 -14 0 6 30 33 38
34 1 0 -2 -9 -8 -20z m-170 -149 c0 -12 -83 -90 -145 -137 -27 -21 -55 -45
-62 -54 -6 -8 -15 -11 -19 -7 -8 8 1 17 101 100 27 23 57 50 67 60 10 9 22 17
27 17 5 0 11 7 15 15 6 17 16 20 16 6z m-410 -360 c0 -4 -12 -17 -26 -27 -14
-10 -33 -25 -41 -33 -7 -7 -16 -11 -19 -8 -7 6 32 47 45 47 5 0 11 7 15 15 6
16 26 21 26 6z m-216 -182 c-43 -34 -59 -37 -44 -9 6 11 19 20 29 20 11 0 22
7 25 16 3 8 11 12 16 9 6 -4 -5 -19 -26 -36z m306 -27 c0 -13 -12 -22 -22 -16
-10 6 -1 24 13 24 5 0 9 -4 9 -8z m400 -79 c31 -15 32 -17 15 -30 -30 -22 -85
-14 -85 13 0 10 20 29 36 34 0 0 16 -7 34 -17z m1140 -769 c0 -2 -15 -4 -32
-3 -27 0 -29 2 -13 8 18 8 45 4 45 -5z"/>
<path d="M4823 4883 c-18 -7 -16 -23 2 -23 8 0 15 7 15 15 0 8 -1 15 -2 14 -2
0 -9 -3 -15 -6z"/>
<path d="M4457 4584 c-10 -13 -13 -24 -7 -24 5 0 10 5 10 10 0 17 27 11 34 -7
6 -14 9 -14 27 6 12 12 18 25 14 29 -4 4 -10 1 -12 -5 -6 -17 -23 -16 -37 1
-9 13 -14 11 -29 -10z"/>
<path d="M4676 3519 c-21 -22 -36 -42 -34 -45 6 -5 88 68 88 79 0 15 -17 5
-54 -34z"/>
<path d="M4502 3361 c-35 -33 -42 -48 -14 -32 35 21 54 40 50 51 -2 6 -18 -3
-36 -19z"/>
<path d="M5990 3210 c-8 -5 -34 -10 -58 -10 -24 0 -52 -5 -62 -10 -13 -7 -21
-7 -25 0 -8 13 -35 13 -55 0 -13 -8 -12 -11 5 -24 19 -15 18 -15 -15 -18 -19
-1 -48 -2 -65 -2 -20 -1 -31 -7 -33 -18 -3 -14 4 -18 30 -18 19 0 38 -4 44
-10 5 -5 52 -12 104 -14 70 -4 106 -11 142 -28 50 -24 57 -41 20 -46 -15 -2
-22 -10 -22 -25 1 -22 1 -22 16 -2 14 19 16 19 46 2 29 -17 32 -17 67 0 26 13
35 24 33 38 -1 11 -4 55 -5 97 -2 42 -5 79 -7 81 -11 10 -146 16 -160 7z"/>
<path d="M5577 3134 c-8 -8 1 -24 14 -24 5 0 9 7 9 15 0 15 -12 20 -23 9z"/>
<path d="M5636 3123 c-11 -11 -6 -23 9 -23 8 0 15 4 15 9 0 13 -16 22 -24 14z"/>
<path d="M4995 3023 c-65 -7 -61 -20 9 -28 74 -7 100 0 71 22 -11 7 -24 12
-29 11 -6 -1 -29 -3 -51 -5z"/>
<path d="M4801 3012 c-20 -6 -22 -9 -9 -20 18 -14 120 -3 122 13 1 12 -79 16
-113 7z"/>
<path d="M5136 3012 c-15 -7 -12 -10 19 -19 40 -13 68 -7 62 11 -4 13 -55 18
-81 8z"/>
<path d="M4775 2950 c-3 -5 1 -10 9 -10 8 0 18 5 21 10 3 6 -1 10 -9 10 -8 0
-18 -4 -21 -10z"/>
<path d="M4892 2951 c-10 -6 -7 -10 13 -15 28 -7 49 0 40 15 -8 11 -36 12 -53
0z"/>
<path d="M5927 2893 c-17 -16 -3 -23 52 -23 65 0 94 7 85 21 -6 10 -127 12
-137 2z"/>
<path d="M5190 2860 c0 -16 7 -20 35 -20 37 0 49 22 19 34 -32 12 -54 6 -54
-14z"/>
</g>
</svg>
